<svg width="28" height="28" viewBox="0 0 28 28" fill="none" xmlns="http://www.w3.org/2000/svg">
<path d="M8.09471 9.69302C8.41192 6.67021 10.9606 4.375 14 4.375V4.375C17.0394 4.375 19.5881 6.67021 19.9053 9.69302L20.2157 12.6507C20.2425 12.9065 20.2559 13.0345 20.2733 13.1607C20.3995 14.0805 20.6849 14.9713 21.1167 15.7933C21.176 15.9061 21.2394 16.018 21.3662 16.2418L21.9978 17.3564C22.6903 18.5785 23.0366 19.1895 22.8104 19.6607C22.7873 19.7088 22.7604 19.755 22.7299 19.7988C22.4315 20.2279 21.7292 20.2279 20.3245 20.2279H7.67548C6.2708 20.2279 5.56846 20.2279 5.27008 19.7988C5.2396 19.755 5.21268 19.7088 5.18957 19.6607C4.96339 19.1895 5.30965 18.5785 6.00218 17.3564L6.63379 16.2418C6.76063 16.018 6.82404 15.9061 6.8833 15.7933C7.31508 14.9713 7.60048 14.0805 7.72674 13.1607C7.74407 13.0344 7.75749 12.9065 7.78434 12.6507L8.09471 9.69302Z" stroke="white" stroke-width="1.5"/>
<path d="M10.9012 20.6875C11.0839 21.5302 11.4867 22.2749 12.0471 22.806C12.6074 23.3371 13.2939 23.625 14.0002 23.625C14.7064 23.625 15.393 23.3371 15.9533 22.806C16.5136 22.2749 16.9164 21.5303 17.0992 20.6875" stroke="white" stroke-width="1.5" stroke-linecap="round"/>
<circle cx="25" cy="3" r="3" fill="#FF5F5F"/>
</svg>
