<svg width="20" height="22" viewBox="0 0 20 22" fill="none" xmlns="http://www.w3.org/2000/svg">
<path d="M4.09471 6.69302C4.41192 3.67021 6.96059 1.375 10 1.375V1.375C13.0394 1.375 15.5881 3.67021 15.9053 6.69302L16.2157 9.65067C16.2425 9.90652 16.2559 10.0345 16.2733 10.1607C16.3995 11.0805 16.6849 11.9713 17.1167 12.7933C17.176 12.9061 17.2394 13.018 17.3662 13.2418L17.9978 14.3564C18.6903 15.5785 19.0366 16.1895 18.8104 16.6607C18.7873 16.7088 18.7604 16.755 18.7299 16.7988C18.4315 17.2279 17.7292 17.2279 16.3245 17.2279H3.67548C2.2708 17.2279 1.56846 17.2279 1.27008 16.7988C1.2396 16.755 1.21268 16.7088 1.18957 16.6607C0.96339 16.1895 1.30965 15.5785 2.00218 14.3564L2.63379 13.2418C2.76063 13.018 2.82404 12.9061 2.8833 12.7933C3.31508 11.9713 3.60048 11.0805 3.72674 10.1607C3.74407 10.0344 3.75749 9.90652 3.78434 9.65067L4.09471 6.69302Z" stroke="white" stroke-width="1.5"/>
<path d="M6.90115 17.6875C7.08394 18.5302 7.48674 19.2749 8.04705 19.806C8.60737 20.3371 9.2939 20.625 10.0002 20.625C10.7064 20.625 11.393 20.3371 11.9533 19.806C12.5136 19.2749 12.9164 18.5303 13.0992 17.6875" stroke="white" stroke-width="1.5" stroke-linecap="round"/>
</svg>
