<svg width="52" height="52" viewBox="0 0 52 52" fill="none" xmlns="http://www.w3.org/2000/svg">
<g filter="url(#filter0_d_182_7254)">
<path fill-rule="evenodd" clip-rule="evenodd" d="M43.0281 31.5991C44.9125 28.6379 46 25.1482 46 21.4121C46 10.6911 37.0457 2 26 2C14.9543 2 6 10.6911 6 21.4121C6 32.133 14.9543 40.8241 26 40.8241C29.2622 40.8241 32.342 40.066 35.0625 38.7215L42.244 41.8336C43.7575 42.4895 45.3961 41.0507 44.9885 39.4237L43.0281 31.5991Z" fill="#3730FF"/>
<path d="M43.0281 31.5991L42.1844 31.0622L41.9535 31.425L42.058 31.8421L43.0281 31.5991ZM35.0625 38.7215L35.4602 37.8039L35.0349 37.6197L34.6195 37.825L35.0625 38.7215ZM42.244 41.8336L41.8464 42.7512L42.244 41.8336ZM44.9885 39.4237L45.9585 39.1807L44.9885 39.4237ZM45 21.4121C45 24.9509 43.9706 28.2553 42.1844 31.0622L43.8717 32.136C45.8544 29.0204 47 25.3455 47 21.4121H45ZM26 3C36.5217 3 45 11.2713 45 21.4121H47C47 10.1109 37.5696 1 26 1V3ZM7 21.4121C7 11.2713 15.4783 3 26 3V1C14.4304 1 5 10.1109 5 21.4121H7ZM26 39.8241C15.4783 39.8241 7 31.5528 7 21.4121H5C5 32.7132 14.4304 41.8241 26 41.8241V39.8241ZM34.6195 37.825C32.0344 39.1026 29.106 39.8241 26 39.8241V41.8241C29.4184 41.8241 32.6496 41.0295 35.5056 39.618L34.6195 37.825ZM34.6649 39.639L41.8464 42.7512L42.6416 40.9161L35.4602 37.8039L34.6649 39.639ZM41.8464 42.7512C44.1671 43.7569 46.5552 41.5623 45.9585 39.1807L44.0185 39.6668C44.237 40.5391 43.3479 41.2221 42.6416 40.9161L41.8464 42.7512ZM45.9585 39.1807L43.9981 31.356L42.058 31.8421L44.0185 39.6668L45.9585 39.1807Z" fill="white"/>
<path d="M23.2777 21.8661C23.2777 23.0433 22.9848 24.085 22.5376 24.8161C22.0852 25.5557 21.5272 25.907 20.9999 25.907C20.4727 25.907 19.9147 25.5557 19.4623 24.8161C19.0151 24.085 18.7222 23.0433 18.7222 21.8661C18.7222 20.689 19.0151 19.6473 19.4623 18.9162C19.9147 18.1766 20.4727 17.8253 20.9999 17.8253C21.5272 17.8253 22.0852 18.1766 22.5376 18.9162C22.9848 19.6473 23.2777 20.689 23.2777 21.8661Z" fill="#FAFAFA" stroke="white"/>
<path d="M33.2777 21.8661C33.2777 23.0433 32.9848 24.085 32.5376 24.8161C32.0852 25.5557 31.5272 25.907 30.9999 25.907C30.4727 25.907 29.9147 25.5557 29.4623 24.8161C29.0151 24.085 28.7222 23.0433 28.7222 21.8661C28.7222 20.689 29.0151 19.6473 29.4623 18.9162C29.9147 18.1766 30.4727 17.8253 30.9999 17.8253C31.5272 17.8253 32.0852 18.1766 32.5376 18.9162C32.9848 19.6473 33.2777 20.689 33.2777 21.8661Z" fill="#FAFAFA" stroke="white"/>
</g>
<defs>
<filter id="filter0_d_182_7254" x="0" y="0" width="52" height="52.0014" filterUnits="userSpaceOnUse" color-interpolation-filters="sRGB">
<feFlood flood-opacity="0" result="BackgroundImageFix"/>
<feColorMatrix in="SourceAlpha" type="matrix" values="0 0 0 0 0 0 0 0 0 0 0 0 0 0 0 0 0 0 127 0" result="hardAlpha"/>
<feOffset dy="4"/>
<feGaussianBlur stdDeviation="2.5"/>
<feComposite in2="hardAlpha" operator="out"/>
<feColorMatrix type="matrix" values="0 0 0 0 0 0 0 0 0 0 0 0 0 0 0 0 0 0 0.25 0"/>
<feBlend mode="normal" in2="BackgroundImageFix" result="effect1_dropShadow_182_7254"/>
<feBlend mode="normal" in="SourceGraphic" in2="effect1_dropShadow_182_7254" result="shape"/>
</filter>
</defs>
</svg>
