<svg width="56" height="24" viewBox="0 0 56 24" fill="none" xmlns="http://www.w3.org/2000/svg">
  <rect x="52.5" y="3" width="3" height="3" fill="white" />
  <rect x="28.5" y="19.5" width="3" height="1.5" fill="white" />
  <rect x="52.5" y="13.5" width="3" height="3" fill="white" />
  <rect x="28.5" y="3" width="3" height="27" transform="rotate(-90 28.5 3)" fill="white" />
  <rect x="28.5" y="10.5" width="3" height="27" transform="rotate(-90 28.5 10.5)" fill="white" />
  <rect x="28.5" y="15" width="3" height="27" transform="rotate(-90 28.5 15)" fill="white" />
  <rect x="28.5" y="19.5" width="3" height="27" transform="rotate(-90 28.5 19.5)" fill="white" />
  <rect x="28.5" y="24" width="3" height="27" transform="rotate(-90 28.5 24)" fill="white" />
  <rect x="24" width="3" height="15" fill="white" />
  <rect x="19.5" width="3" height="12" fill="white" />
  <rect width="3" height="12" fill="white" />
  <rect y="16.5" width="3" height="4.5" fill="white" />
  <rect x="24" y="16.5" width="3" height="4.5" fill="white" />
  <rect y="3" width="3" height="22.5" transform="rotate(-90 0 3)" fill="white" />
  <rect y="15" width="3" height="22.5" transform="rotate(-90 0 15)" fill="white" />
  <rect y="19.5" width="3" height="27" transform="rotate(-90 0 19.5)" fill="white" />
  <rect y="24" width="3" height="27" transform="rotate(-90 0 24)" fill="white" />
</svg>
  