<svg width="303" height="108" viewBox="0 0 303 108" fill="none" xmlns="http://www.w3.org/2000/svg">
  <path d="M11.0391 25.9609L11.3203 30.5664C12.0469 28.9258 13.043 27.6367 14.3086 26.6992C15.5977 25.7383 17.1562 25.2578 18.9844 25.2578C19.875 25.2578 20.6719 25.3633 21.375 25.5742C22.0781 25.7852 22.6875 26.1133 23.2031 26.5586C23.6016 26.8867 23.9414 27.2852 24.2227 27.7539C24.5273 28.1992 24.7852 28.7148 24.9961 29.3008C25.3242 28.7383 25.6875 28.2344 26.0859 27.7891C26.5078 27.3203 26.9648 26.9219 27.457 26.5938C28.0664 26.1719 28.7578 25.8438 29.5312 25.6094C30.3047 25.375 31.1484 25.2578 32.0625 25.2578C33.2109 25.2578 34.2773 25.4688 35.2617 25.8906C36.2695 26.3125 37.1484 26.9805 37.8984 27.8945C38.625 28.832 39.1875 30.0391 39.5859 31.5156C40.0078 32.9688 40.2188 34.75 40.2188 36.8594V64H31.3242V36.8242C31.3242 36.0977 31.2422 35.5 31.0781 35.0312C30.9375 34.5625 30.7383 34.1875 30.4805 33.9062C30.2227 33.6484 29.918 33.4727 29.5664 33.3789C29.2383 33.2617 28.8984 33.2031 28.5469 33.2031C28.1719 33.2031 27.832 33.25 27.5273 33.3438C27.2461 33.4375 26.9766 33.5664 26.7188 33.7305C26.5078 33.8945 26.3203 34.082 26.1562 34.293C25.9922 34.4805 25.8516 34.7031 25.7344 34.9609C25.7344 35.0078 25.7344 35.1133 25.7344 35.2773C25.7344 35.4414 25.7344 35.6641 25.7344 35.9453V64H17.1211V36.7891C17.1211 36.0625 17.0508 35.4648 16.9102 34.9961C16.7695 34.5273 16.582 34.1641 16.3477 33.9062C16.0898 33.6484 15.7969 33.4727 15.4688 33.3789C15.1406 33.2617 14.7891 33.2031 14.4141 33.2031C13.9922 33.2031 13.6172 33.2734 13.2891 33.4141C12.9609 33.5547 12.668 33.7539 12.4102 34.0117C12.2227 34.1992 12.0586 34.4219 11.918 34.6797C11.7773 34.9375 11.6484 35.2188 11.5312 35.5234V64H2.63672V25.9609H11.0391ZM66.6562 64.7031C63.7266 64.7031 61.0664 64.2227 58.6758 63.2617C56.2852 62.3008 54.2344 60.9883 52.5234 59.3242C50.8125 57.6836 49.4883 55.75 48.5508 53.5234C47.6367 51.2734 47.1797 48.8711 47.1797 46.3164V44.9102C47.1797 42.0039 47.6367 39.3555 48.5508 36.9648C49.4648 34.5508 50.7422 32.4766 52.3828 30.7422C54.0234 29.0078 55.9688 27.6602 58.2188 26.6992C60.4688 25.7383 62.918 25.2578 65.5664 25.2578C68.3086 25.2578 70.7461 25.7148 72.8789 26.6289C75.0352 27.5195 76.8633 28.7852 78.3633 30.4258C79.8398 32.0664 80.9648 34.0469 81.7383 36.3672C82.5117 38.6641 82.8984 41.207 82.8984 43.9961V48.1445H57.0938V48.25C57.4219 49.7734 57.8438 51.0039 58.3594 51.9414C58.875 52.8555 59.5664 53.6875 60.4336 54.4375C61.3242 55.2109 62.3438 55.8086 63.4922 56.2305C64.6406 56.6523 65.8945 56.8633 67.2539 56.8633C69.1758 56.8633 71.0391 56.5 72.8438 55.7734C74.6484 55.0469 76.1133 53.957 77.2383 52.5039L82.125 57.7773C80.8828 59.5352 78.9141 61.1289 76.2188 62.5586C73.5234 63.9883 70.3359 64.7031 66.6562 64.7031ZM65.4961 33.168C64.3945 33.168 63.3867 33.3672 62.4727 33.7656C61.5586 34.1406 60.7617 34.6914 60.082 35.418C59.3789 36.1445 58.793 37.0117 58.3242 38.0195C57.8555 39.0273 57.5039 40.1523 57.2695 41.3945H73.3008V40.6211C73.3008 39.5898 73.1133 38.6172 72.7383 37.7031C72.3633 36.7891 71.8477 35.9922 71.1914 35.3125C70.5352 34.6562 69.7266 34.1406 68.7656 33.7656C67.8281 33.3672 66.7383 33.168 65.4961 33.168ZM97.5234 25.9609L97.8047 30.5664C98.5312 28.9258 99.5273 27.6367 100.793 26.6992C102.082 25.7383 103.641 25.2578 105.469 25.2578C106.359 25.2578 107.156 25.3633 107.859 25.5742C108.562 25.7852 109.172 26.1133 109.688 26.5586C110.086 26.8867 110.426 27.2852 110.707 27.7539C111.012 28.1992 111.27 28.7148 111.48 29.3008C111.809 28.7383 112.172 28.2344 112.57 27.7891C112.992 27.3203 113.449 26.9219 113.941 26.5938C114.551 26.1719 115.242 25.8438 116.016 25.6094C116.789 25.375 117.633 25.2578 118.547 25.2578C119.695 25.2578 120.762 25.4688 121.746 25.8906C122.754 26.3125 123.633 26.9805 124.383 27.8945C125.109 28.832 125.672 30.0391 126.07 31.5156C126.492 32.9688 126.703 34.75 126.703 36.8594V64H117.809V36.8242C117.809 36.0977 117.727 35.5 117.562 35.0312C117.422 34.5625 117.223 34.1875 116.965 33.9062C116.707 33.6484 116.402 33.4727 116.051 33.3789C115.723 33.2617 115.383 33.2031 115.031 33.2031C114.656 33.2031 114.316 33.25 114.012 33.3438C113.73 33.4375 113.461 33.5664 113.203 33.7305C112.992 33.8945 112.805 34.082 112.641 34.293C112.477 34.4805 112.336 34.7031 112.219 34.9609C112.219 35.0078 112.219 35.1133 112.219 35.2773C112.219 35.4414 112.219 35.6641 112.219 35.9453V64H103.605V36.7891C103.605 36.0625 103.535 35.4648 103.395 34.9961C103.254 34.5273 103.066 34.1641 102.832 33.9062C102.574 33.6484 102.281 33.4727 101.953 33.3789C101.625 33.2617 101.273 33.2031 100.898 33.2031C100.477 33.2031 100.102 33.2734 99.7734 33.4141C99.4453 33.5547 99.1523 33.7539 98.8945 34.0117C98.707 34.1992 98.543 34.4219 98.4023 34.6797C98.2617 34.9375 98.1328 35.2188 98.0156 35.5234V64H89.1211V25.9609H97.5234ZM153.141 64.7031C150.211 64.7031 147.551 64.2227 145.16 63.2617C142.77 62.3008 140.719 60.9883 139.008 59.3242C137.297 57.6836 135.973 55.75 135.035 53.5234C134.121 51.2734 133.664 48.8711 133.664 46.3164V44.9102C133.664 42.0039 134.121 39.3555 135.035 36.9648C135.949 34.5508 137.227 32.4766 138.867 30.7422C140.508 29.0078 142.453 27.6602 144.703 26.6992C146.953 25.7383 149.402 25.2578 152.051 25.2578C154.793 25.2578 157.23 25.7148 159.363 26.6289C161.52 27.5195 163.348 28.7852 164.848 30.4258C166.324 32.0664 167.449 34.0469 168.223 36.3672C168.996 38.6641 169.383 41.207 169.383 43.9961V48.1445H143.578V48.25C143.906 49.7734 144.328 51.0039 144.844 51.9414C145.359 52.8555 146.051 53.6875 146.918 54.4375C147.809 55.2109 148.828 55.8086 149.977 56.2305C151.125 56.6523 152.379 56.8633 153.738 56.8633C155.66 56.8633 157.523 56.5 159.328 55.7734C161.133 55.0469 162.598 53.957 163.723 52.5039L168.609 57.7773C167.367 59.5352 165.398 61.1289 162.703 62.5586C160.008 63.9883 156.82 64.7031 153.141 64.7031ZM151.98 33.168C150.879 33.168 149.871 33.3672 148.957 33.7656C148.043 34.1406 147.246 34.6914 146.566 35.418C145.863 36.1445 145.277 37.0117 144.809 38.0195C144.34 39.0273 143.988 40.1523 143.754 41.3945H159.785V40.6211C159.785 39.5898 159.598 38.6172 159.223 37.7031C158.848 36.7891 158.332 35.9922 157.676 35.3125C157.02 34.6562 156.211 34.1406 155.25 33.7656C154.312 33.3672 153.223 33.168 151.98 33.168Z" fill="black"/>
  <path d="M176.941 44.6992C176.941 41.8164 177.293 39.1797 177.996 36.7891C178.723 34.3984 179.754 32.3477 181.09 30.6367C182.426 28.9258 184.043 27.6016 185.941 26.6641C187.84 25.7266 189.984 25.2578 192.375 25.2578C193.664 25.2578 194.836 25.3867 195.891 25.6445C196.969 25.8789 197.941 26.2422 198.809 26.7344C199.465 27.0859 200.074 27.5078 200.637 28C201.199 28.4688 201.715 28.9961 202.184 29.582L202.57 25.9609H211.465V62.7695C211.465 65.3477 211.02 67.6445 210.129 69.6602C209.262 71.6758 208.043 73.375 206.473 74.7578C204.879 76.1406 202.969 77.1836 200.742 77.8867C198.539 78.6133 196.102 78.9766 193.43 78.9766C192.281 78.9766 191.051 78.8594 189.738 78.625C188.426 78.3906 187.125 78.0273 185.836 77.5352C184.547 77.043 183.328 76.4102 182.18 75.6367C181.031 74.8867 180.047 73.9844 179.227 72.9297L183.621 66.9883C184.254 67.7148 184.934 68.3477 185.66 68.8867C186.387 69.4492 187.148 69.9062 187.945 70.2578C188.719 70.6094 189.516 70.8672 190.336 71.0312C191.18 71.2188 192.047 71.3125 192.938 71.3125C194.367 71.3125 195.633 71.1133 196.734 70.7148C197.859 70.3164 198.797 69.7305 199.547 68.957C200.227 68.2539 200.742 67.3867 201.094 66.3555C201.469 65.3242 201.656 64.1641 201.656 62.875V60.6953C201.188 61.2109 200.695 61.6797 200.18 62.1016C199.664 62.5234 199.113 62.8984 198.527 63.2266C197.66 63.6953 196.699 64.0586 195.645 64.3164C194.613 64.5742 193.5 64.7031 192.305 64.7031C189.938 64.7031 187.805 64.2227 185.906 63.2617C184.031 62.2773 182.426 60.9297 181.09 59.2188C179.754 57.5078 178.723 55.4805 177.996 53.1367C177.293 50.7695 176.941 48.2031 176.941 45.4375V44.6992ZM186.75 45.4375C186.75 47.0312 186.902 48.5195 187.207 49.9023C187.535 51.2617 188.027 52.4453 188.684 53.4531C189.34 54.4844 190.172 55.293 191.18 55.8789C192.188 56.4648 193.383 56.7578 194.766 56.7578C195.609 56.7578 196.371 56.6758 197.051 56.5117C197.754 56.3477 198.387 56.1133 198.949 55.8086C199.535 55.4805 200.051 55.082 200.496 54.6133C200.941 54.1445 201.328 53.6172 201.656 53.0312V36.9297C201.305 36.2734 200.883 35.6992 200.391 35.207C199.898 34.7148 199.336 34.3164 198.703 34.0117C198.164 33.7539 197.566 33.5547 196.91 33.4141C196.277 33.2734 195.586 33.2031 194.836 33.2031C193.453 33.2031 192.258 33.5078 191.25 34.1172C190.242 34.7031 189.41 35.5117 188.754 36.543C188.074 37.5977 187.57 38.8281 187.242 40.2344C186.914 41.6172 186.75 43.1055 186.75 44.6992V45.4375ZM223.207 10H244.477V56.0547H255.375V64H223.207V56.0547H234.598V17.9805H223.207V10ZM282.867 64.7031C279.938 64.7031 277.277 64.2227 274.887 63.2617C272.496 62.3008 270.445 60.9883 268.734 59.3242C267.023 57.6836 265.699 55.75 264.762 53.5234C263.848 51.2734 263.391 48.8711 263.391 46.3164V44.9102C263.391 42.0039 263.848 39.3555 264.762 36.9648C265.676 34.5508 266.953 32.4766 268.594 30.7422C270.234 29.0078 272.18 27.6602 274.43 26.6992C276.68 25.7383 279.129 25.2578 281.777 25.2578C284.52 25.2578 286.957 25.7148 289.09 26.6289C291.246 27.5195 293.074 28.7852 294.574 30.4258C296.051 32.0664 297.176 34.0469 297.949 36.3672C298.723 38.6641 299.109 41.207 299.109 43.9961V48.1445H273.305V48.25C273.633 49.7734 274.055 51.0039 274.57 51.9414C275.086 52.8555 275.777 53.6875 276.645 54.4375C277.535 55.2109 278.555 55.8086 279.703 56.2305C280.852 56.6523 282.105 56.8633 283.465 56.8633C285.387 56.8633 287.25 56.5 289.055 55.7734C290.859 55.0469 292.324 53.957 293.449 52.5039L298.336 57.7773C297.094 59.5352 295.125 61.1289 292.43 62.5586C289.734 63.9883 286.547 64.7031 282.867 64.7031ZM281.707 33.168C280.605 33.168 279.598 33.3672 278.684 33.7656C277.77 34.1406 276.973 34.6914 276.293 35.418C275.59 36.1445 275.004 37.0117 274.535 38.0195C274.066 39.0273 273.715 40.1523 273.48 41.3945H289.512V40.6211C289.512 39.5898 289.324 38.6172 288.949 37.7031C288.574 36.7891 288.059 35.9922 287.402 35.3125C286.746 34.6562 285.938 34.1406 284.977 33.7656C284.039 33.3672 282.949 33.168 281.707 33.168Z" fill="#2B56EF"/>
  <path d="M10.704 91.784H12.032V100.376H10.704V91.784ZM11.648 95.544H14.16V96.648H11.648V95.544ZM7.408 100.68C10.336 100.68 12.16 101.72 12.16 103.464C12.16 105.208 10.336 106.232 7.408 106.232C4.48 106.232 2.656 105.208 2.656 103.464C2.656 101.72 4.48 100.68 7.408 100.68ZM7.408 101.768C5.264 101.768 3.952 102.376 3.952 103.464C3.952 104.52 5.264 105.144 7.408 105.144C9.552 105.144 10.864 104.52 10.864 103.464C10.864 102.376 9.552 101.768 7.408 101.768ZM1.44 98.152H2.56C5.552 98.152 7.232 98.056 9.168 97.656L9.328 98.744C7.328 99.144 5.616 99.24 2.56 99.24H1.44V98.152ZM1.44 92.888H7.824V93.976H2.752V98.856H1.44V92.888ZM26.0308 91.8H27.3748V102.392H26.0308V91.8ZM18.0788 104.84H27.8068V105.928H18.0788V104.84ZM18.0788 101.416H19.3908V105.352H18.0788V101.416ZM19.2788 92.584H20.3828V94.056C20.3828 96.872 18.7828 99.336 16.3508 100.328L15.6628 99.256C17.8388 98.408 19.2788 96.296 19.2788 94.056V92.584ZM19.5188 92.584H20.6068V94.056C20.6068 96.232 22.0628 98.2 24.2228 98.984L23.5188 100.056C21.1188 99.128 19.5188 96.808 19.5188 94.056V92.584ZM40.7335 91.768H42.0615V106.264H40.7335V91.768ZM34.4295 92.888C36.5735 92.888 38.1095 94.856 38.1095 97.928C38.1095 101.016 36.5735 102.984 34.4295 102.984C32.3015 102.984 30.7655 101.016 30.7655 97.928C30.7655 94.856 32.3015 92.888 34.4295 92.888ZM34.4295 94.088C33.0215 94.088 32.0295 95.592 32.0295 97.928C32.0295 100.28 33.0215 101.816 34.4295 101.816C35.8535 101.816 36.8295 100.28 36.8295 97.928C36.8295 95.592 35.8535 94.088 34.4295 94.088ZM53.021 99.064H54.349V102.28H53.021V99.064ZM59.437 91.784H60.765V102.792H59.437V91.784ZM50.893 104.84H61.117V105.928H50.893V104.84ZM50.893 101.72H52.221V105.144H50.893V101.72ZM49.021 99.56L48.845 98.472C51.517 98.472 55.101 98.44 58.173 98.04L58.269 99.016C55.149 99.512 51.645 99.56 49.021 99.56ZM56.493 100.328H59.773V101.304H56.493V100.328ZM53.549 92.376C55.661 92.376 57.101 93.368 57.101 94.888C57.101 96.424 55.661 97.416 53.549 97.416C51.421 97.416 49.981 96.424 49.981 94.888C49.981 93.368 51.421 92.376 53.549 92.376ZM53.549 93.368C52.189 93.368 51.245 93.96 51.245 94.888C51.245 95.816 52.189 96.408 53.549 96.408C54.893 96.408 55.837 95.816 55.837 94.888C55.837 93.96 54.893 93.368 53.549 93.368ZM73.4358 91.784H74.7638V106.248H73.4358V91.784ZM74.4438 97.72H77.1318V98.84H74.4438V97.72ZM63.5638 94.088H72.0918V95.176H63.5638V94.088ZM67.8838 96.376C69.9318 96.376 71.4038 97.752 71.4038 99.704C71.4038 101.656 69.9318 103.032 67.8838 103.032C65.8518 103.032 64.3638 101.656 64.3638 99.704C64.3638 97.752 65.8518 96.376 67.8838 96.376ZM67.8838 97.48C66.5718 97.48 65.6278 98.392 65.6278 99.704C65.6278 101 66.5718 101.928 67.8838 101.928C69.1958 101.928 70.1398 101 70.1398 99.704C70.1398 98.392 69.1958 97.48 67.8838 97.48ZM67.1958 91.96H68.5238V94.584H67.1958V91.96ZM80.1225 96.12H89.9465V97.208H80.1225V96.12ZM78.3465 99.144H91.4665V100.232H78.3465V99.144ZM80.1225 92.312H81.4345V96.664H80.1225V92.312ZM80.0265 104.808H90.0265V105.896H80.0265V104.808ZM80.0265 101.672H81.3385V105.096H80.0265V101.672ZM97.05 103.304H110.154V104.408H97.05V103.304ZM102.906 99.56H104.234V103.608H102.906V99.56ZM98.57 92.984H108.554V99.8H98.57V92.984ZM107.274 94.056H99.866V98.728H107.274V94.056ZM111.769 99.08H124.841V100.168H111.769V99.08ZM113.417 96.408H123.337V97.512H113.417V96.408ZM113.417 92.408H123.209V93.48H114.745V96.776H113.417V92.408ZM113.433 104.824H123.465V105.928H113.433V104.824ZM113.433 101.688H114.761V105.112H113.433V101.688ZM131.208 92.696H137.944V99H131.208V92.696ZM136.664 93.768H132.488V97.928H136.664V93.768ZM140.968 91.8H142.312V100.056H140.968V91.8ZM132.968 100.856H142.312V106.056H132.968V100.856ZM141 101.928H134.264V104.984H141V101.928Z" fill="black"/>
  </svg>
  